<?xml version="1.0" encoding="utf-8"?>
<!-- Generator: Adobe Illustrator 23.0.1, SVG Export Plug-In . SVG Version: 6.00 Build 0)  -->
<svg version="1.1" id="Layer_1" xmlns="http://www.w3.org/2000/svg" xmlns:xlink="http://www.w3.org/1999/xlink" x="0px" y="0px"
	 viewBox="0 0 24 24" style="enable-background:new 0 0 24 24;" xml:space="preserve">
<style type="text/css">
	.st0{fill-rule:evenodd;clip-rule:evenodd;fill:#24A7E4;}
</style>
<title>ic_home</title>
<desc>Created with Sketch.</desc>
<g id="OPt-2">
	<g id="prog2_pro3_Mobile-Portrait_opt2-Copy-2" transform="translate(-10.000000, -15.000000)">
		<g id="nav">
			<g id="Group-6">
				<g id="ic_home" transform="translate(14.000000, 17.000000)">
					<g id="Group" transform="translate(9.600000, 12.000000) scale(-1, 1) translate(-9.600000, -12.000000) ">
						<path id="Shape" class="st0" d="M5.8,6.6L6.4,7l1,0.7c0.1-0.6,0.5-1.2,1-1.6L6.6,4.8L7.1,4C7.4,3.7,7.3,3.3,7,3L5.6,4.9
							C5.4,5.2,5.3,5.5,5.4,5.8C5.4,6.1,5.6,6.4,5.8,6.6L5.8,6.6z"/>
						<path class="st0" d="M11.7,13c-2.1-1.1-3.9-1.4-4.4-0.6c-0.4,0.6,0.3,1.8,1.5,2.9l-1.2,2H6.8c-0.4,0-0.7,0.3-0.7,0.7h1.1h1.4
							l0.4-0.7l0.7-1.1l0.3-0.4c-0.1-0.2-0.2-0.3-0.2-0.5c0-0.6,0.5-1.1,1-1.1c0,0,0.1,0,0.1,0L11.7,13L11.7,13z"/>
						<path class="st0" d="M17.4,6.3c-0.1-0.5-0.6-0.9-1.1-0.9c-0.2,0-0.3,0-0.4,0.1c-0.4,0.2-0.7,0.6-0.7,1.1V12
							c0,0.4-0.3,0.7-0.7,0.7c-0.3,0-0.5-0.2-0.6-0.4c0,0,0,0,0-0.1l-0.6-1.6l1.3-4.3c0,0,0,0,0,0c0,0,0-0.1,0-0.1
							c0.5-1.7-0.4-3.4-1.9-4.2l-3,1C9.3,3.2,9.1,3.6,9.2,3.9l0.8-0.3c0.3-0.1,0.6,0,0.7,0.3s0,0.6-0.3,0.7L9.5,5
							c0.1,0.4,0.5,0.5,0.9,0.4l0.8-0.3c0.1,0.3-0.1,0.7-0.5,0.8L9.2,6.5C8.6,6.8,8.1,7.5,8.1,8.2c0,0,0,0.1,0,0.1c0,0,0,0,0,0.1
							c0,0,0,0,0,0H5.6v-1c0-0.3-0.3-0.5-0.5-0.6L4.9,6.7V9c0,0.7,0.5,1.2,1.2,1.2h2.8c0.2,0,0.5,0,0.7,0.1c0,0,0,0,0,0c0,0,0,0,0,0
							c0,0,0,0,0,0c1.2,0.3,2.2,1.4,2.3,2.7c0,0,0,0,0,0.1c0,0.1,0,0.2,0,0.2c0,0.7-0.3,1.4-0.7,1.9c0,0-0.1,0.1-0.1,0.1
							C11,15.5,11,15.6,11,15.8c0,0.4,0.3,0.8,0.8,0.8c0.2,0,0.3,0,0.4-0.1l1.5-0.9c0.2,0.1,0.4,0.4,0.4,0.6c0,0.2-0.1,0.3-0.2,0.5
							l-0.6,0.7h-0.8h0h0c-0.4,0-0.7,0.3-0.7,0.7h1.4h0H14c0-0.7,0.5-1.2,1.2-1.2v-2.1c-0.5-0.1-1-0.6-1-1.2c0,0,0-0.1,0-0.1
							c0.1,0,0.1,0,0.2,0c0.3,0,0.5-0.1,0.7-0.2c0.4-0.3,0.7-0.7,0.7-1.2V6.5c0-0.3,0.2-0.5,0.5-0.5c0.2,0,0.4,0.2,0.5,0.4
							c-0.3,0.2-0.5,0.6-0.5,1c0,0.7,0.5,1.2,1.2,1.2V6.5C17.5,6.5,17.5,6.4,17.4,6.3L17.4,6.3z"/>
					</g>
				</g>
			</g>
		</g>
	</g>
</g>
</svg>
