<?xml version="1.0" encoding="utf-8"?>
<!-- Generator: Adobe Illustrator 23.0.1, SVG Export Plug-In . SVG Version: 6.00 Build 0)  -->
<svg version="1.1" id="Layer_1" xmlns="http://www.w3.org/2000/svg" xmlns:xlink="http://www.w3.org/1999/xlink" x="0px" y="0px"
	 viewBox="0 0 27 27" style="enable-background:new 0 0 27 27;" xml:space="preserve">
<style type="text/css">
	.st0{fill-rule:evenodd;clip-rule:evenodd;fill:#24A7E4;}
</style>
<title>ic_onCampus</title>
<desc>Created with Sketch.</desc>
<g id="OPt-2">
	<g id="prog2_pro3_Mobile-Portrait_opt2-Copy-2" transform="translate(-93.000000, -18.000000)">
		<g id="nav">
			<g id="Group-6">
				<g id="ic_onCampus" transform="translate(96.000000, 20.000000)">
					<path id="Shape" class="st0" d="M18.8,4.8v1.7h-4.3l-3,4.3h2.1v1.7h-1.3l3.2,6.9h-1.9l-0.8-1.7H5.3l-0.9,1.7H2.4L6,12.6H5.8
						c-0.4,0-0.7-0.3-0.8-0.6L2.2,3.8l0.8-0.3C3.5,3.4,4,3.7,4.2,4.1l2.3,6.8h3.8l3-4.3h-3.1V4.8H18.8L18.8,4.8z M8,12.6L6.2,16h5.8
						l-1.6-3.5H8z"/>
				</g>
			</g>
		</g>
	</g>
</g>
</svg>
